# xmcd
#
# Track frame offsets: 
#        150
#        19562
#        35922
#        59365
#        82041
#        101705
#        123866
#        153875
#        174015
#        189598
#        208774
#
# Disc length: 3031 seconds
#
# Revision: 0
# Processed by: cddbd v1.5.2PL0 Copyright (c) Steve Scherf et al.
# Submitted via: ExactAudioCopy v0.90b4
#
DISCID=8a0bd50b
DTITLE=Big Mumbo Blues Band - How Blue Can You Get?
DYEAR=2011
DGENRE=Left Coast Blues
TTITLE0=Ain't No Love
TTITLE1=Cleanu Up Woman
TTITLE2=Respect Yourself
TTITLE3=Blues About Ya Baby
TTITLE4=Beg, Borrow and Steal
TTITLE5=Love Ritual
TTITLE6=How Blue Can You Get
TTITLE7=Day To Day Thing
TTITLE8=Too Long
TTITLE9=Whatever Will Do
TTITLE10=Could This Be The End
EXTD=
EXTT0=
EXTT1=
EXTT2=
EXTT3=
EXTT4=
EXTT5=
EXTT6=
EXTT7=
EXTT8=
EXTT9=
EXTT10=
PLAYORDER=
